<svg width="249" height="48" viewBox="0 0 249 48" fill="none" xmlns="http://www.w3.org/2000/svg">
<path d="M84.3277 37.6999V42.2891H69.0798V37.6999H84.3277ZM71.0079 13.734V42.2891H65.1055V13.734H71.0079ZM82.3406 25.3639V29.8354H69.0798V25.3639H82.3406ZM84.3081 13.734V18.3428H69.0798V13.734H84.3081Z" fill="#56C596"/>
<path d="M106.992 37.6999V42.2891H92.5707V37.6999H106.992ZM94.4791 13.734V42.2891H88.5767V13.734H94.4791Z" fill="#56C596"/>
<path d="M130.404 37.6999V42.2891H115.157V37.6999H130.404ZM117.085 13.734V42.2891H111.182V13.734H117.085ZM128.417 25.3639V29.8354H115.157V25.3639H128.417ZM130.385 13.734V18.3428H115.157V13.734H130.385Z" fill="#56C596"/>
<path d="M144.983 36.327L151.731 13.734H158.302L148.327 42.2891H143.999L144.983 36.327ZM138.765 13.734L145.494 36.327L146.517 42.2891H142.15L132.233 13.734H138.765Z" fill="#56C596"/>
<path d="M181.006 37.6999V42.2891H165.758V37.6999H181.006ZM167.687 13.734V42.2891H161.784V13.734H167.687ZM179.019 25.3639V29.8354H165.758V25.3639H179.019ZM180.987 13.734V18.3428H165.758V13.734H180.987Z" fill="#56C596"/>
<path d="M208.57 13.734V42.2891H202.667L191.158 23.1478V42.2891H185.255V13.734H191.158L202.687 32.8949V13.734H208.57Z" fill="#56C596"/>
<path d="M235.68 36.327L242.429 13.734H249L239.025 42.2891H234.696L235.68 36.327ZM229.463 13.734L236.192 36.327L237.215 42.2891H232.847L222.931 13.734H229.463Z" fill="#56C596"/>
<g clipPath="url(#clip0_100_1872)">
<path d="M24.7796 0.0275879C24.4025 0.318366 23.9938 0.577487 23.6518 0.904612C16.4863 7.76759 9.32389 14.6345 2.16465 21.5053C1.42444 22.2146 1.02974 23.0295 1.26398 24.0601C1.37573 24.6014 1.66873 25.0882 2.09449 25.44C2.52024 25.7918 3.05323 25.9875 3.60524 25.9947C4.61834 26.0205 5.63144 26.003 6.6504 26.0053H7.19384V26.6127C7.19384 32.311 7.19384 38.0093 7.19384 43.7076C7.19384 46.3316 8.86634 48.0001 11.4957 48.0001H25.1556V0.0275879H24.7796Z" fill="#205072"/>
<path d="M47.7444 21.1172C40.678 14.3511 33.6172 7.58078 26.5618 0.806122C26.2526 0.510655 25.8778 0.285536 25.5334 0.0275879H25.1563V48.0001H38.808C41.4655 48.0001 43.1239 46.3375 43.1251 43.6759V26.0076H44.7296C45.3375 26.0076 45.9454 26.0147 46.5532 26.0076C47.769 25.9889 48.6239 25.3616 49.0128 24.2184C49.0417 24.1499 49.075 24.0834 49.1123 24.0191V23.0811C48.8957 22.2557 48.3382 21.6847 47.7444 21.1172Z" fill="#56C596"/>
</g>
<defs>
<clipPath id="clip0_100_1872">
<rect width="49.1147" height="47.9725" fill="white" transform="translate(0 0.0275879)"/>
</clipPath>
</defs>
</svg>
